<?xml version="1.0" encoding="UTF-8" standalone="no"?>
<!-- Created with Inkscape (http://www.inkscape.org/) -->

<svg
   width="256.0px"
   height="256.0px"
   viewBox="0 0 256.0 256.0"
   version="1.1"
   id="SVGRoot"
   sodipodi:docname="logoColegioVPrueba.svg"
   inkscape:version="1.2.2 (732a01da63, 2022-12-09)"
   xmlns:inkscape="http://www.inkscape.org/namespaces/inkscape"
   xmlns:sodipodi="http://sodipodi.sourceforge.net/DTD/sodipodi-0.dtd"
   xmlns="http://www.w3.org/2000/svg"
   xmlns:svg="http://www.w3.org/2000/svg">
  <sodipodi:namedview
     id="namedview21"
     pagecolor="#505050"
     bordercolor="#ffffff"
     borderopacity="1"
     inkscape:showpageshadow="0"
     inkscape:pageopacity="0"
     inkscape:pagecheckerboard="1"
     inkscape:deskcolor="#505050"
     inkscape:document-units="px"
     showgrid="true"
     inkscape:zoom="1.4142136"
     inkscape:cx="24.04163"
     inkscape:cy="99.702053"
     inkscape:window-width="1360"
     inkscape:window-height="705"
     inkscape:window-x="-8"
     inkscape:window-y="-8"
     inkscape:window-maximized="1"
     inkscape:current-layer="layer1"
     showguides="true">
    <inkscape:grid
       type="xygrid"
       id="grid27" />
    <sodipodi:guide
       position="-24.041629,297.01219"
       orientation="0,-1"
       id="guide305"
       inkscape:locked="false" />
  </sodipodi:namedview>
  <defs
     id="defs16">
    <rect
       x="48.994804"
       y="122.61527"
       width="30.525558"
       height="29.756006"
       id="rect17538" />
    <rect
       x="109.7894"
       y="172.89266"
       width="46.429631"
       height="40.529733"
       id="rect16793" />
    <rect
       x="90.294088"
       y="180.07514"
       width="14.108451"
       height="19.238797"
       id="rect16061" />
    <rect
       x="126.20651"
       y="146.21486"
       width="21.290936"
       height="24.369143"
       id="rect15329" />
    <rect
       x="50.27739"
       y="131.84989"
       width="18.212728"
       height="25.395212"
       id="rect15323" />
    <rect
       x="87.728915"
       y="142.88013"
       width="20.008349"
       height="19.495314"
       id="rect13859" />
    <rect
       x="64.573102"
       y="57.317698"
       width="104.47783"
       height="35.551483"
       id="rect12970" />
    <rect
       x="-307.62916"
       y="153.08904"
       width="141.48039"
       height="93.594722"
       id="rect12238" />
    <linearGradient
       id="linearGradient12232"
       inkscape:swatch="solid">
      <stop
         style="stop-color:#144e6d;stop-opacity:1;"
         offset="0"
         id="stop12230" />
    </linearGradient>
    <rect
       x="60.21986"
       y="56.592157"
       width="147.28472"
       height="55.141076"
       id="rect9390" />
    <rect
       x="75.45621"
       y="64.573102"
       width="9.4320262"
       height="12.334188"
       id="rect9384" />
  </defs>
  <g
     inkscape:label="Capa 1"
     inkscape:groupmode="layer"
     id="layer1">
    <text
       xml:space="preserve"
       id="text9382"
       style="white-space:pre;shape-inside:url(#rect9384);display:inline;opacity:1;fill:#ffffff;fill-opacity:1;stroke-width:1.9;stroke-dasharray:none;paint-order:stroke fill markers"><tspan
         x="75.457031"
         y="87.856167"
         id="tspan446">t</tspan></text>
    <text
       xml:space="preserve"
       id="text12236"
       style="white-space:pre;shape-inside:url(#rect12238);display:inline;opacity:1;fill:#144e6d;fill-opacity:1;stroke-width:6.162;stroke-dasharray:none;paint-order:fill markers stroke" />
    <g
       id="g2359"
       inkscape:highlight-color="#d03bee">
      <rect
         style="fill:#144e6d;fill-opacity:1;stroke-width:1.20666"
         id="rect3236"
         width="210.6344"
         height="155.80168"
         x="21.879395"
         y="10.589284" />
      <path
         style="fill:#144e6d;fill-opacity:1;stroke-width:1.20666"
         id="path6837"
         sodipodi:type="arc"
         sodipodi:cx="134.16264"
         sodipodi:cy="192.15504"
         sodipodi:rx="6.7299109"
         sodipodi:ry="10.954805"
         sodipodi:start="0"
         sodipodi:end="0.017453293"
         sodipodi:arc-type="arc"
         d="m 140.89255,192.15504 a 6.7299109,10.954805 0 0 1 -0.001,0.19119"
         sodipodi:open="true" />
      <path
         style="fill:#144e6d;fill-opacity:1;stroke-width:3.42071"
         id="path6839"
         sodipodi:type="arc"
         sodipodi:cx="120.58412"
         sodipodi:cy="168.08264"
         sodipodi:rx="111.92967"
         sodipodi:ry="82.103813"
         sodipodi:start="5.846853"
         sodipodi:end="1.5498524"
         sodipodi:open="true"
         sodipodi:arc-type="arc"
         d="m 222.02686,133.38407 a 111.92967,82.103813 0 0 1 -6.41762,78.08537 111.92967,82.103813 0 0 1 -92.68104,38.69901" />
      <path
         style="fill:#144e6d;fill-opacity:1;stroke-width:3.42071"
         id="path6841"
         sodipodi:type="arc"
         sodipodi:cx="-134.26341"
         sodipodi:cy="168.08264"
         sodipodi:rx="111.92967"
         sodipodi:ry="82.103813"
         sodipodi:start="5.846853"
         sodipodi:end="1.5498524"
         sodipodi:open="true"
         sodipodi:arc-type="arc"
         d="m -32.820679,133.38407 a 111.92967,82.103813 0 0 1 -6.417612,78.08537 111.92967,82.103813 0 0 1 -92.681049,38.69901"
         transform="scale(-1,1)" />
      <path
         style="fill:#144e6d;fill-opacity:1;stroke-width:1.20666"
         d="m 68.870696,234.14847 c 41.324004,20.69243 57.617474,20.48955 57.617474,20.48955 l -0.23613,-6.6946"
         id="path6853" />
      <path
         style="fill:#144e6d;fill-opacity:1;stroke-width:1.20666"
         d="m 183.63338,234.14847 c -41.32401,20.69243 -57.61748,20.48955 -57.61748,20.48955 l 0.23613,-6.6946"
         id="path6855" />
      <ellipse
         style="fill:#144e6d;fill-opacity:1;stroke-width:1.20666"
         id="path6857"
         cx="123.89067"
         cy="178.9687"
         rx="68.952065"
         ry="45.03643" />
      <ellipse
         style="fill:#144e6d;fill-opacity:1;stroke-width:1.20666"
         id="path6859"
         cx="118.69566"
         cy="220.75926"
         rx="32.586937"
         ry="25.155481" />
      <path
         style="fill:#144e6d;fill-opacity:1;stroke-width:1.20666"
         id="path7399"
         sodipodi:type="arc"
         sodipodi:cx="115.862"
         sodipodi:cy="127.84628"
         sodipodi:rx="38.25423"
         sodipodi:ry="29.618549"
         sodipodi:start="5.846853"
         sodipodi:end="1.5498524"
         sodipodi:open="true"
         sodipodi:arc-type="arc"
         d="m 150.53211,115.32894 a 38.25423,29.618549 0 0 1 -2.19335,28.16892 38.25423,29.618549 0 0 1 -31.67563,13.96048" />
      <rect
         style="fill:#ffffff;fill-opacity:1;stroke-width:1.05245"
         id="rect6897"
         width="183.24249"
         height="136.24158"
         x="36.047626"
         y="28.462078" />
      <path
         style="fill:#ffffff;fill-opacity:1;stroke-width:1.05245"
         id="path6899"
         sodipodi:type="arc"
         sodipodi:cx="133.72902"
         sodipodi:cy="187.2332"
         sodipodi:rx="5.8547206"
         sodipodi:ry="9.5794868"
         sodipodi:start="0"
         sodipodi:end="0.017453293"
         sodipodi:arc-type="arc"
         d="m 139.58374,187.2332 a 5.8547206,9.5794868 0 0 1 -8.9e-4,0.16719"
         sodipodi:open="true" />
      <path
         style="fill:#ffffff;fill-opacity:1;stroke-width:2.98355"
         id="path6901"
         sodipodi:type="arc"
         sodipodi:cx="121.91632"
         sodipodi:cy="166.18297"
         sodipodi:rx="97.373795"
         sodipodi:ry="71.796097"
         sodipodi:start="5.846853"
         sodipodi:end="1.5498524"
         sodipodi:open="true"
         sodipodi:arc-type="arc"
         d="m 210.16695,135.84063 a 97.373795,71.796097 0 0 1 -5.58304,68.28215 97.373795,71.796097 0 0 1 -80.62835,33.84054" />
      <path
         style="fill:#ffffff;fill-opacity:1;stroke-width:2.98355"
         id="path6903"
         sodipodi:type="arc"
         sodipodi:cx="-133.3792"
         sodipodi:cy="166.18297"
         sodipodi:rx="97.373795"
         sodipodi:ry="71.796097"
         sodipodi:start="5.846853"
         sodipodi:end="1.5498524"
         sodipodi:open="true"
         sodipodi:arc-type="arc"
         d="m -45.128568,135.84063 a 97.373795,71.796097 0 0 1 -5.583034,68.28215 97.373795,71.796097 0 0 1 -80.628358,33.84054"
         transform="scale(-1,1)" />
      <path
         style="fill:#ffffff;fill-opacity:1;stroke-width:1.05245"
         d="m 76.927954,223.95455 c 35.950036,18.09461 50.124616,17.9172 50.124616,17.9172 l -0.20542,-5.85414"
         id="path6905" />
      <path
         style="fill:#ffffff;fill-opacity:1;stroke-width:1.05245"
         d="m 176.76634,223.95455 c -35.95004,18.09461 -50.12462,17.9172 -50.12462,17.9172 l 0.20542,-5.85414"
         id="path6907" />
      <ellipse
         style="fill:#ffffff;fill-opacity:1;stroke-width:1.05245"
         id="ellipse6911"
         cx="120.27344"
         cy="212.24629"
         rx="28.349174"
         ry="21.997339" />
      <path
         style="fill:#ffffff;fill-opacity:1;fill-rule:nonzero;stroke:none;stroke-width:1.52629;stroke-linecap:round;stroke-linejoin:round;stroke-dasharray:none;stroke-opacity:1;paint-order:normal"
         d="m 80.355456,182.92091 c -1.649432,2.89574 -3.359883,5.80101 -4.810805,8.79777 -0.910376,1.8803 -1.562772,3.87845 -2.555741,5.71855 -1.01682,1.88431 -2.329335,3.60243 -3.457766,5.4253 -2.22997,3.60229 -0.662876,1.01979 -1.95439,3.95899 -0.07117,0.16198 -0.243538,0.27271 -0.300675,0.43989 -0.167042,0.48877 0.206018,0.43989 -0.150337,0.43989"
         id="path23435" />
      <path
         style="fill:#ffffff;fill-opacity:1;fill-rule:nonzero;stroke:none;stroke-width:1.52629;stroke-linecap:round;stroke-linejoin:round;stroke-dasharray:none;stroke-opacity:1;paint-order:normal"
         d="m 72.086884,199.78331 c 1.113293,-2.74748 2.558106,-5.35732 3.758442,-8.06463 2.344003,-5.28682 -0.295677,-0.009 1.653714,-3.81237 0.151163,-0.29486 0.749421,-1.53684 1.052364,-1.90618 0.09932,-0.12109 0.300675,0.008 0.300675,-0.29326"
         id="path23437" />
      <rect
         style="fill:#ffffff;fill-opacity:1;stroke-width:1.164;stroke-linecap:round;stroke-linejoin:round"
         id="rect590"
         width="135.7645"
         height="72.124886"
         x="62.932499"
         y="137.88582"
         inkscape:highlight-color="#ee3b3b" />
    </g>
    <path
       style="fill:#144e6d;fill-opacity:1;stroke:none;stroke-width:1.43306;stroke-dasharray:none"
       d="m 183.68267,139.15894 2.86331,1.71399 9.49088,1.89682 7.88137,4.14052 4.13636,3.41457 v 2.6927 l -4.25862,4.17938 -7.75911,3.37571 -9.49088,1.89682 -2.32412,1.71399 -1.41785,3.94597 1.32971,3.28282 7.26467,6.35667 5.24237,7.87961 1.36263,4.63234 -1.35531,2.332 -5.02562,1.55283 -9.18496,-0.97908 -9.17412,-3.07129 -3.41458,0.0814 -3.09365,3.07314 -0.082,3.39194 3.09179,9.1133 0.60945,9.17513 -1.18703,4.94124 -2.34756,1.34632 -6.44068,-1.77762 -6.15478,-4.78359 -6.3991,-7.21651 -2.94526,-1.67797 -4.69122,1.58699 -1.36597,2.48725 -1.90948,9.42796 -3.33823,7.6985 -4.26729,4.23956 h -2.71066 l -4.91433,-4.46063 -2.69119,-7.47743 -1.90948,-9.42796 -1.5457,-2.66579 -4.51149,-0.87284 -2.94526,1.14236 -6.3991,7.21651 -7.095813,4.95482 -5.499645,1.60639 -2.347558,-1.34632 -0.23148,-5.65752 -0.346099,-8.45885 3.091782,-9.1133 -0.621146,-3.39194 -3.453111,-3.07314 -2.515928,-0.0814 -9.174123,3.07129 -10.032821,-0.40508 -3.415231,-0.73678 -1.673026,-2.26887 0.468094,-3.12242 5.692093,-8.88455 7.264674,-6.35667 1.509442,-2.56867 -1.238122,-4.48158 -2.68358,-1.89253 -9.490878,-1.89682 -8.123819,-4.31515 -2.382981,-1.26577 -1.510935,-1.97417 v -2.6927 l 2.038969,-2.23263 2.346672,-1.25167 7.632094,-4.07079 9.490878,-1.89682 2.68358,-1.89253 1.957041,-6.26696 -2.228361,-0.78329 -7.264674,-6.35667 -6.191977,-8.94925 -0.413018,-3.5627 1.355306,-2.332 3.797343,-0.96878 10.413237,0.39503 9.174123,3.07129 3.234847,-0.25995 3.093651,-3.25168 0.261687,-3.03487 -3.091782,-9.113299 -0.919218,-10.274144 1.496797,-3.842226 2.347558,-1.34632 5.785302,1.852823 6.810156,4.708383 6.3991,7.216512 3.12499,1.320897 4.33176,-1.229914 1.5457,-2.487251 1.90948,-9.427957 3.9134,-8.356693 3.69212,-3.581369 h 2.71066 l 3.75535,4.11266 3.85017,7.825402 1.90948,9.427957 1.90516,3.201404 4.15203,1.051375 2.94526,-1.856511 6.3991,-7.216512 6.89637,-4.671691 5.38137,-1.573901 2.66528,1.030706 1.26809,4.464735 -0.69051,9.651635 -3.09179,9.113299 -0.2775,3.2134 3.27338,3.25168 3.59431,0.0814 9.17412,-3.07129 8.98316,-0.57644 5.22742,1.15019 1.35531,2.332 -0.67175,3.97235 -5.93325,8.5396 -7.26467,6.35667 -2.22836,2.56867 z"
       id="path1052"
       sodipodi:nodetypes="ccccccccccccccccccccccccccccccccccccccccccccccccccccccccccccccccccccccccccccccccccccccccccccccccccccccccccccccccccccccccccc" />
    <g
       id="g36909"
       transform="matrix(1.4335015,0,0,1.291486,-35.4784,-67.782438)"
       style="stroke-width:1.0003;stroke-dasharray:none">
      <ellipse
         style="fill:#144e6d;fill-opacity:1;stroke-width:1.0003;stroke-dasharray:none"
         id="path7401"
         cx="114.15882"
         cy="169.99899"
         rx="43.532429"
         ry="40.993038" />
      <ellipse
         style="fill:#ffffff;fill-opacity:1;stroke-width:1.0003;stroke-dasharray:none"
         id="path7403"
         cx="114.24498"
         cy="169.8441"
         rx="28.822977"
         ry="30.718336" />
      <rect
         style="fill:#144e6d;fill-opacity:1;stroke-width:1.0003;stroke-dasharray:none;paint-order:stroke fill markers"
         id="rect7863"
         width="69.241287"
         height="12.31283"
         x="135.54474"
         y="-120.56312"
         transform="rotate(90)" />
      <rect
         style="fill:#144e6d;fill-opacity:1;stroke-width:1.0003;stroke-dasharray:none"
         id="rect8633"
         width="69.866287"
         height="12.31283"
         x="80.223557"
         y="162.57147" />
      <text
         xml:space="preserve"
         id="text15321"
         style="white-space:pre;shape-inside:url(#rect15323);display:inline;fill:#144e6d;fill-opacity:1;stroke-width:1.0003;stroke-dasharray:none;paint-order:fill markers stroke"
         transform="translate(44.890527,12.31283)"><tspan
           x="50.277344"
           y="142.79757"
           id="tspan448">𝗘</tspan></text>
      <text
         xml:space="preserve"
         id="text15327"
         style="white-space:pre;shape-inside:url(#rect15329);display:inline;fill:#144e6d;fill-opacity:1;stroke-width:1.0003;stroke-dasharray:none;paint-order:fill markers stroke"
         transform="translate(-0.25651729,-1.7956211)"><tspan
           x="126.20703"
           y="157.16281"
           id="tspan450">𝗘</tspan></text>
      <text
         xml:space="preserve"
         id="text16059"
         style="white-space:pre;shape-inside:url(#rect16061);display:inline;fill:#144e6d;fill-opacity:1;stroke-width:1.0003;stroke-dasharray:none;paint-order:fill markers stroke"
         transform="translate(4.8738287,0.76955191)"><tspan
           x="90.294922"
           y="191.02218"
           id="tspan452">𝗦</tspan></text>
      <text
         xml:space="preserve"
         id="text16791"
         style="white-space:pre;shape-inside:url(#rect16793);display:inline;fill:#144e6d;fill-opacity:1;stroke-width:1.0003;stroke-dasharray:none;paint-order:fill markers stroke"
         transform="translate(17.186659,8.7215881)"><tspan
           x="109.78906"
           y="183.84054"
           id="tspan454">𝗧</tspan></text>
    </g>
    <ellipse
       style="fill:#144e6d;fill-opacity:1;stroke-width:1.36105;stroke-dasharray:none"
       id="path7701"
       cx="128.50391"
       cy="150.92847"
       rx="24.269382"
       ry="22.196329" />
    <ellipse
       style="fill:#ffffff;fill-opacity:1;stroke-width:1.36105;stroke-dasharray:none"
       id="path8635"
       cx="128.8716"
       cy="150.92848"
       rx="12.134691"
       ry="10.601232" />
    <text
       xml:space="preserve"
       id="text17536"
       style="white-space:pre;shape-inside:url(#rect17538);display:inline;fill:#144e6d;fill-opacity:1;stroke-width:0.716524;stroke-dasharray:none;paint-order:fill markers stroke"
       transform="matrix(2.1633705,0,0,1.6678342,12.54792,-62.607689)"><tspan
         x="48.994141"
         y="133.5632"
         id="tspan456">𝟱</tspan></text>
    <text
       xml:space="preserve"
       id="text12968"
       style="white-space:pre;shape-inside:url(#rect12970);display:inline;fill:#144e6d;fill-opacity:1;stroke-width:6.162;stroke-dasharray:none;paint-order:fill markers stroke"
       transform="matrix(2.0543392,0,0,2.1847465,-89.990177,-90.398855)"><tspan
         x="64.572266"
         y="68.266323"
         id="tspan458">𝗧𝗘𝗠𝗣𝗘𝗥𝗟𝗘𝗬</tspan></text>
  </g>
</svg>
