<?xml version="1.0" encoding="UTF-8" standalone="no"?>
<svg
   width="16"
   height="16"
   fill="currentColor"
   class="bi bi-moon-fill"
   viewBox="0 0 16 16"
   version="1.1"
   id="svg4"
   sodipodi:docname="moon.svg"
   inkscape:version="1.2.2 (732a01da63, 2022-12-09)"
   xmlns:inkscape="http://www.inkscape.org/namespaces/inkscape"
   xmlns:sodipodi="http://sodipodi.sourceforge.net/DTD/sodipodi-0.dtd"
   xmlns="http://www.w3.org/2000/svg"
   xmlns:svg="http://www.w3.org/2000/svg">
  <defs
     id="defs8" />
  <sodipodi:namedview
     id="namedview6"
     pagecolor="#505050"
     bordercolor="#ffffff"
     borderopacity="1"
     inkscape:showpageshadow="0"
     inkscape:pageopacity="0"
     inkscape:pagecheckerboard="1"
     inkscape:deskcolor="#505050"
     showgrid="false"
     inkscape:zoom="34.1875"
     inkscape:cx="7.678245"
     inkscape:cy="8.0146252"
     inkscape:window-width="1360"
     inkscape:window-height="705"
     inkscape:window-x="-8"
     inkscape:window-y="-8"
     inkscape:window-maximized="1"
     inkscape:current-layer="svg4" />
  <path
     d="m 6,0.278 a 0.768,0.768 0 0 1 0.08,0.858 7.208,7.208 0 0 0 -0.878,3.46 c 0,4.021 3.278,7.277 7.318,7.277 0.527,0 1.04,-0.055 1.533,-0.16 a 0.787,0.787 0 0 1 0.81,0.316 0.733,0.733 0 0 1 -0.031,0.893 A 8.349,8.349 0 0 1 8.344,16 C 3.734,16 0,12.286 0,7.71 0,4.266 2.114,1.312 5.124,0.06 A 0.752,0.752 0 0 1 6,0.278 Z"
     id="path2"
     inkscape:highlight-color="#000000"
     style="fill:#fff6f6;fill-opacity:1" />
</svg>
